<mxfile host="app.diagrams.net" agent="Mozilla/5.0 (X11; Linux x86_64) AppleWebKit/537.36 (KHTML, like Gecko) Chrome/129.0.0.0 Safari/537.36" version="24.7.16">
  <diagram id="C5RBs43oDa-KdzZeNtuy" name="Page-1">
    <mxGraphModel dx="1434" dy="861" grid="1" gridSize="10" guides="1" tooltips="1" connect="1" arrows="1" fold="1" page="1" pageScale="1" pageWidth="827" pageHeight="1169" math="0" shadow="0">
      <root>
        <mxCell id="WIyWlLk6GJQsqaUBKTNV-0" />
        <mxCell id="WIyWlLk6GJQsqaUBKTNV-1" parent="WIyWlLk6GJQsqaUBKTNV-0" />
        <mxCell id="KQ7NkNT104Aa-GhbK24q-46" value="" style="edgeStyle=none;curved=1;rounded=0;orthogonalLoop=1;jettySize=auto;html=1;fontSize=12;startSize=8;endSize=8;" edge="1" parent="WIyWlLk6GJQsqaUBKTNV-1" source="KQ7NkNT104Aa-GhbK24q-11" target="KQ7NkNT104Aa-GhbK24q-43">
          <mxGeometry relative="1" as="geometry" />
        </mxCell>
        <mxCell id="KQ7NkNT104Aa-GhbK24q-11" value="Student&lt;div&gt;(user)&lt;/div&gt;" style="rounded=1;whiteSpace=wrap;html=1;" vertex="1" parent="WIyWlLk6GJQsqaUBKTNV-1">
          <mxGeometry x="203" y="80" width="120" height="60" as="geometry" />
        </mxCell>
        <mxCell id="KQ7NkNT104Aa-GhbK24q-36" value="" style="edgeStyle=none;curved=1;rounded=0;orthogonalLoop=1;jettySize=auto;html=1;fontSize=12;startSize=8;endSize=8;" edge="1" parent="WIyWlLk6GJQsqaUBKTNV-1" source="KQ7NkNT104Aa-GhbK24q-13" target="KQ7NkNT104Aa-GhbK24q-14">
          <mxGeometry relative="1" as="geometry" />
        </mxCell>
        <mxCell id="KQ7NkNT104Aa-GhbK24q-13" value="Chatterbox&lt;div&gt;(Application)&lt;/div&gt;" style="rounded=1;whiteSpace=wrap;html=1;" vertex="1" parent="WIyWlLk6GJQsqaUBKTNV-1">
          <mxGeometry x="203" y="280" width="120" height="60" as="geometry" />
        </mxCell>
        <mxCell id="KQ7NkNT104Aa-GhbK24q-37" value="" style="edgeStyle=none;curved=1;rounded=0;orthogonalLoop=1;jettySize=auto;html=1;fontSize=12;startSize=8;endSize=8;" edge="1" parent="WIyWlLk6GJQsqaUBKTNV-1" source="KQ7NkNT104Aa-GhbK24q-14" target="KQ7NkNT104Aa-GhbK24q-15">
          <mxGeometry relative="1" as="geometry" />
        </mxCell>
        <mxCell id="KQ7NkNT104Aa-GhbK24q-14" value="Network" style="rounded=1;whiteSpace=wrap;html=1;" vertex="1" parent="WIyWlLk6GJQsqaUBKTNV-1">
          <mxGeometry x="203" y="480" width="120" height="60" as="geometry" />
        </mxCell>
        <mxCell id="KQ7NkNT104Aa-GhbK24q-15" value="File Storage" style="rounded=1;whiteSpace=wrap;html=1;" vertex="1" parent="WIyWlLk6GJQsqaUBKTNV-1">
          <mxGeometry x="203" y="590" width="120" height="60" as="geometry" />
        </mxCell>
        <mxCell id="KQ7NkNT104Aa-GhbK24q-16" value="Notification&amp;nbsp;&lt;div&gt;Service&lt;/div&gt;" style="rounded=1;whiteSpace=wrap;html=1;" vertex="1" parent="WIyWlLk6GJQsqaUBKTNV-1">
          <mxGeometry x="417" y="480" width="120" height="60" as="geometry" />
        </mxCell>
        <mxCell id="KQ7NkNT104Aa-GhbK24q-53" value="" style="edgeStyle=none;curved=1;rounded=0;orthogonalLoop=1;jettySize=auto;html=1;fontSize=12;startSize=8;endSize=8;" edge="1" parent="WIyWlLk6GJQsqaUBKTNV-1" source="KQ7NkNT104Aa-GhbK24q-18" target="KQ7NkNT104Aa-GhbK24q-16">
          <mxGeometry relative="1" as="geometry" />
        </mxCell>
        <mxCell id="KQ7NkNT104Aa-GhbK24q-18" value="Settings&amp;nbsp;&lt;div&gt;Options&lt;/div&gt;" style="rounded=1;whiteSpace=wrap;html=1;" vertex="1" parent="WIyWlLk6GJQsqaUBKTNV-1">
          <mxGeometry x="417" y="590" width="120" height="60" as="geometry" />
        </mxCell>
        <mxCell id="KQ7NkNT104Aa-GhbK24q-31" value="" style="endArrow=classic;startArrow=classic;html=1;rounded=0;fontSize=12;startSize=8;endSize=8;curved=1;" edge="1" parent="WIyWlLk6GJQsqaUBKTNV-1" source="KQ7NkNT104Aa-GhbK24q-14">
          <mxGeometry width="50" height="50" relative="1" as="geometry">
            <mxPoint x="332" y="509.5" as="sourcePoint" />
            <mxPoint x="417" y="509.5" as="targetPoint" />
          </mxGeometry>
        </mxCell>
        <mxCell id="KQ7NkNT104Aa-GhbK24q-32" value="" style="endArrow=classic;startArrow=classic;html=1;rounded=0;fontSize=12;startSize=8;endSize=8;curved=1;" edge="1" parent="WIyWlLk6GJQsqaUBKTNV-1">
          <mxGeometry width="50" height="50" relative="1" as="geometry">
            <mxPoint x="323" y="620" as="sourcePoint" />
            <mxPoint x="417" y="619.5" as="targetPoint" />
          </mxGeometry>
        </mxCell>
        <mxCell id="KQ7NkNT104Aa-GhbK24q-40" value="Sends and Receives Messages and Images" style="text;html=1;align=center;verticalAlign=middle;whiteSpace=wrap;rounded=0;fontSize=16;" vertex="1" parent="WIyWlLk6GJQsqaUBKTNV-1">
          <mxGeometry x="184" y="390" width="60" height="30" as="geometry" />
        </mxCell>
        <mxCell id="KQ7NkNT104Aa-GhbK24q-49" value="" style="edgeStyle=none;curved=1;rounded=0;orthogonalLoop=1;jettySize=auto;html=1;fontSize=12;startSize=8;endSize=8;" edge="1" parent="WIyWlLk6GJQsqaUBKTNV-1" source="KQ7NkNT104Aa-GhbK24q-43" target="KQ7NkNT104Aa-GhbK24q-13">
          <mxGeometry relative="1" as="geometry" />
        </mxCell>
        <mxCell id="KQ7NkNT104Aa-GhbK24q-43" value="Login Page" style="rounded=1;whiteSpace=wrap;html=1;" vertex="1" parent="WIyWlLk6GJQsqaUBKTNV-1">
          <mxGeometry x="203" y="180" width="120" height="60" as="geometry" />
        </mxCell>
        <mxCell id="KQ7NkNT104Aa-GhbK24q-44" value="School LMS&lt;div&gt;Credential Database&lt;/div&gt;" style="rounded=1;whiteSpace=wrap;html=1;" vertex="1" parent="WIyWlLk6GJQsqaUBKTNV-1">
          <mxGeometry x="413" y="180" width="120" height="60" as="geometry" />
        </mxCell>
        <mxCell id="KQ7NkNT104Aa-GhbK24q-45" value="" style="endArrow=classic;startArrow=classic;html=1;rounded=0;fontSize=12;startSize=8;endSize=8;curved=1;" edge="1" parent="WIyWlLk6GJQsqaUBKTNV-1">
          <mxGeometry width="50" height="50" relative="1" as="geometry">
            <mxPoint x="323" y="209.5" as="sourcePoint" />
            <mxPoint x="413" y="209.5" as="targetPoint" />
          </mxGeometry>
        </mxCell>
        <mxCell id="KQ7NkNT104Aa-GhbK24q-50" value="" style="endArrow=classic;startArrow=classic;html=1;rounded=0;fontSize=12;startSize=8;endSize=8;curved=1;entryX=0.5;entryY=1;entryDx=0;entryDy=0;exitX=1;exitY=0;exitDx=0;exitDy=0;" edge="1" parent="WIyWlLk6GJQsqaUBKTNV-1" source="KQ7NkNT104Aa-GhbK24q-14" target="KQ7NkNT104Aa-GhbK24q-44">
          <mxGeometry width="50" height="50" relative="1" as="geometry">
            <mxPoint x="463" y="510" as="sourcePoint" />
            <mxPoint x="513" y="460" as="targetPoint" />
          </mxGeometry>
        </mxCell>
        <mxCell id="KQ7NkNT104Aa-GhbK24q-52" value="Check credentials" style="text;html=1;align=center;verticalAlign=middle;whiteSpace=wrap;rounded=0;fontSize=16;" vertex="1" parent="WIyWlLk6GJQsqaUBKTNV-1">
          <mxGeometry x="443" y="330" width="140" height="30" as="geometry" />
        </mxCell>
        <mxCell id="KQ7NkNT104Aa-GhbK24q-54" value="Turn on/off notifcations" style="text;html=1;align=center;verticalAlign=middle;whiteSpace=wrap;rounded=0;fontSize=16;" vertex="1" parent="WIyWlLk6GJQsqaUBKTNV-1">
          <mxGeometry x="537" y="550" width="106" height="30" as="geometry" />
        </mxCell>
        <mxCell id="KQ7NkNT104Aa-GhbK24q-55" value="Store Text and Images" style="text;html=1;align=center;verticalAlign=middle;whiteSpace=wrap;rounded=0;fontSize=16;" vertex="1" parent="WIyWlLk6GJQsqaUBKTNV-1">
          <mxGeometry x="293" y="550" width="120" height="30" as="geometry" />
        </mxCell>
        <mxCell id="KQ7NkNT104Aa-GhbK24q-56" value="Theme Settings&lt;div&gt;(Stored Locally)&lt;/div&gt;" style="rounded=1;whiteSpace=wrap;html=1;" vertex="1" parent="WIyWlLk6GJQsqaUBKTNV-1">
          <mxGeometry x="10" y="280" width="120" height="60" as="geometry" />
        </mxCell>
        <mxCell id="KQ7NkNT104Aa-GhbK24q-57" value="" style="endArrow=classic;startArrow=classic;html=1;rounded=0;fontSize=12;startSize=8;endSize=8;curved=1;" edge="1" parent="WIyWlLk6GJQsqaUBKTNV-1">
          <mxGeometry width="50" height="50" relative="1" as="geometry">
            <mxPoint x="133" y="309.5" as="sourcePoint" />
            <mxPoint x="203" y="309.5" as="targetPoint" />
          </mxGeometry>
        </mxCell>
      </root>
    </mxGraphModel>
  </diagram>
</mxfile>
